<?xml version="1.0" encoding="UTF-8" standalone="no"?>
<svg width="70.5556mm" height="70.5556mm"
 viewBox="0 0 200 200"
 xmlns="http://www.w3.org/2000/svg" xmlns:xlink="http://www.w3.org/1999/xlink"  version="1.2" baseProfile="tiny">
<title>SVG Generator Example Drawing</title>
<desc>An SVG drawing created by the SVG Generator Example provided with Qt.</desc>
<defs>
</defs>
<g fill="none" stroke="black" stroke-width="1" fill-rule="evenodd" stroke-linecap="square" stroke-linejoin="bevel" >

<g fill="none" stroke="#000000" stroke-opacity="1" stroke-width="1" stroke-linecap="square" stroke-linejoin="bevel" transform="matrix(1,0,0,1,0,0)"
font-family="MS Shell Dlg 2" font-size="8.25" font-weight="400" font-style="normal" 
>
</g>

<g fill="#000080" fill-opacity="1" stroke="none" transform="matrix(1,0,0,1,0,0)"
font-family="MS Shell Dlg 2" font-size="8.25" font-weight="400" font-style="normal" 
>
<rect x="0" y="0" width="200" height="200"/>
</g>

<g fill="#ffffff" fill-opacity="1" stroke="none" transform="matrix(1,0,0,1,145,10)"
font-family="MS Shell Dlg 2" font-size="8.25" font-weight="400" font-style="normal" 
>
<path vector-effect="none" fill-rule="evenodd" d="M37.5,3.3494 L37.503,3.34631 C33.8252,1.2181 29.5548,0 25,0 C11.1929,0 0,11.1929 0,25 C0,38.8071 11.1929,50 25,50 C29.5554,50 33.8262,48.7816 37.5044,46.6529 L32.5,46.6508 C22.835,46.6508 15,36.9575 15,25.0001 C15,13.0428 22.835,3.3495 32.5,3.3495 "/>
</g>

<g fill="#808000" fill-opacity="1" stroke="#000000" stroke-opacity="1" stroke-width="1" stroke-linecap="square" stroke-linejoin="bevel" transform="matrix(1,0,0,1,100,100)"
font-family="MS Shell Dlg 2" font-size="8.25" font-weight="400" font-style="normal" 
>
<path vector-effect="none" fill-rule="evenodd" d="M-45,-20 L0,-45 L45,-20 L45,45 L-45,45 L-45,-20 M15,5 L35,5 L35,40 L15,40 L15,5 M-35,-15 L-10,-15 L-10,10 L-35,10 L-35,-15"/>
</g>
</g>
</svg>
